HIERARCHY
ROOT Hips
{
	OFFSET -0.001795 -0.223333 0.028219
	CHANNELS 6 Xposition Yposition Zposition Zrotation Yrotation Xrotation 
	JOINT LeftUpLeg
	{
		OFFSET 0.069520 -0.091406 -0.006815
		CHANNELS 3 Zrotation Yrotation Xrotation
		JOINT LeftLeg
		{
			OFFSET 0.034277 -0.375199 -0.004496
			CHANNELS 3 Zrotation Yrotation Xrotation
			JOINT LeftFoot
			{
				OFFSET -0.013596 -0.397961 -0.043693
				CHANNELS 3 Zrotation Yrotation Xrotation
				JOINT LeftToe
				{
					OFFSET 0.026358 -0.055791 0.119288
					CHANNELS 3 Zrotation Yrotation Xrotation
					End Site
					{
						OFFSET 0.000000 0.000000 0.000000
					}
				}
			}
		}
	}
	JOINT RightUpLeg
	{
		OFFSET -0.067670 -0.090522 -0.004320
		CHANNELS 3 Zrotation Yrotation Xrotation
		JOINT RightLeg
		{
			OFFSET -0.038290 -0.382569 -0.008850
			CHANNELS 3 Zrotation Yrotation Xrotation
			JOINT RightFoot
			{
				OFFSET 0.015774 -0.398415 -0.042312
				CHANNELS 3 Zrotation Yrotation Xrotation
				JOINT RightToe
				{
					OFFSET -0.025372 -0.048144 0.123348
					CHANNELS 3 Zrotation Yrotation Xrotation
					End Site
					{
						OFFSET 0.000000 0.000000 0.000000
					}
				}
			}
		}
	}
	JOINT Spine
	{
		OFFSET -0.002533 0.108963 -0.026696
		CHANNELS 3 Zrotation Yrotation Xrotation
		JOINT Spine1
		{
			OFFSET 0.005487 0.135180 0.001092
			CHANNELS 3 Zrotation Yrotation Xrotation
			JOINT Spine2
			{
				OFFSET 0.001457 0.052922 0.025425
				CHANNELS 3 Zrotation Yrotation Xrotation
				JOINT Neck
				{
					OFFSET -0.002778 0.213870 -0.042857
					CHANNELS 3 Zrotation Yrotation Xrotation
					JOINT Head
					{
						OFFSET 0.005152 0.064970 0.051349
						CHANNELS 3 Zrotation Yrotation Xrotation
						End Site
						{
							OFFSET 0.000000 0.000000 0.000000
						}
					}
				}
				JOINT LeftShoulder
				{
					OFFSET 0.078845 0.121749 -0.034090
					CHANNELS 3 Zrotation Yrotation Xrotation
					JOINT LeftArm
					{
						OFFSET 0.090977 0.030469 -0.008868
						CHANNELS 3 Zrotation Yrotation Xrotation
						JOINT LeftForeArm
						{
							OFFSET 0.259612 -0.012772 -0.027456
							CHANNELS 3 Zrotation Yrotation Xrotation
							JOINT LeftHand
							{
								OFFSET 0.249234 0.008986 -0.001171
								CHANNELS 3 Zrotation Yrotation Xrotation
								End Site
								{
									OFFSET 0.000000 0.000000 0.000000
								}
							}
						}
					}
				}
				JOINT RightShoulder
				{
					OFFSET -0.081759 0.118833 -0.038615
					CHANNELS 3 Zrotation Yrotation Xrotation
					JOINT RightArm
					{
						OFFSET -0.096012 0.032551 -0.009143
						CHANNELS 3 Zrotation Yrotation Xrotation
						JOINT RightForeArm
						{
							OFFSET -0.253742 -0.013329 -0.021401
							CHANNELS 3 Zrotation Yrotation Xrotation
							JOINT RightHand
							{
								OFFSET -0.255298 0.007772 -0.005559
								CHANNELS 3 Zrotation Yrotation Xrotation
								End Site
								{
									OFFSET 0.000000 0.000000 0.000000
								}
							}
						}
					}
				}
			}
		}
	}
}
MOTION
Frames: 8
Frame Time: 0.050000
-0.000572 0.966765 -0.028188 -1.121072 1.225171 -3.176759 4.873528 0.430468 10.111407 -2.170949 0.390083 -11.402874 -4.993515 -0.480207 18.643536 0.000000 0.000000 0.000000 -2.043407 -1.022974 12.302418 3.382191 -0.494403 -11.338700 -4.823054 -14.891790 20.643377 0.000000 0.000000 0.000000 -2.516510 -0.126313 6.162149 2.640916 0.004683 -24.696413 2.674542 14.025916 26.899780 12.872086 -3.042116 -28.584932 0.000000 0.000000 0.000000 -23.538305 -2.123690 -5.072762 -49.916173 -5.194664 -4.787183 -9.404451 -18.589954 1.909100 0.000000 0.000000 0.000000 -10.600798 23.352063 5.054360 -14.464396 54.685284 -7.409586 -18.753109 3.419435 -0.105839 0.000000 0.000000 0.000000 
-0.000806 0.966719 -0.028591 -1.153454 1.249433 -3.178969 4.871046 0.422860 9.956832 -2.043145 0.383727 -11.021523 -5.131108 -0.848241 18.244069 0.000000 0.000000 0.000000 -1.983762 -1.022517 12.203952 3.214380 -0.489313 -11.061617 -4.888501 -14.983467 20.590219 0.000000 0.000000 0.000000 -2.470495 -0.129182 6.179510 2.606276 0.012074 -24.667683 2.727897 14.075743 26.863261 12.743696 -2.996437 -28.361830 0.000000 0.000000 0.000000 -23.593957 -2.144504 -5.104265 -49.792763 -5.562230 -4.605315 -9.279233 -18.422350 1.869989 0.000000 0.000000 0.000000 -10.425047 23.298353 5.097967 -14.156115 54.495216 -7.249063 -18.442528 2.468480 0.029145 0.000000 0.000000 0.000000 
-0.000999 0.966902 -0.028958 -1.169431 1.276411 -3.082983 4.830468 0.414977 9.740787 -1.978359 0.381457 -10.939395 -5.193669 -0.961850 18.189436 0.000000 0.000000 0.000000 -2.012566 -1.004565 12.033253 3.241861 -0.486223 -10.771340 -4.964890 -15.087750 20.499595 0.000000 0.000000 0.000000 -2.539615 -0.123742 6.114109 2.710445 -0.021311 -24.473722 2.661450 14.030044 26.672021 12.737625 -2.977360 -28.436417 0.000000 0.000000 0.000000 -23.510005 -2.160305 -5.070149 -49.956606 -5.971514 -4.450156 -8.965580 -18.206250 1.800402 0.000000 0.000000 0.000000 -10.303596 23.272861 5.143352 -13.737726 54.400198 -7.068904 -18.553419 2.141340 0.079334 0.000000 0.000000 0.000000 
-0.001191 0.966956 -0.029309 -1.163110 1.350181 -3.104373 4.755518 0.420653 9.751024 -1.850760 0.376690 -10.777179 -5.353804 -1.291770 17.955102 0.000000 0.000000 0.000000 -1.937515 -1.019391 12.075725 3.119857 -0.483740 -10.656156 -5.020724 -15.174995 20.613901 0.000000 0.000000 0.000000 -2.628518 -0.117839 6.020569 2.831573 -0.063554 -24.179280 2.542767 13.751795 26.545604 12.730196 -3.067163 -28.155603 0.000000 0.000000 0.000000 -23.891740 -2.220470 -5.058993 -49.661965 -6.331449 -4.251335 -9.022548 -18.324884 1.829690 0.000000 0.000000 0.000000 -9.887921 23.461609 5.342610 -13.260477 54.018260 -6.893122 -18.895809 2.277988 0.066227 0.000000 0.000000 0.000000 
-0.001381 0.966931 -0.029704 -1.191298 1.102782 -3.032535 4.680150 0.425720 9.576498 -1.796032 0.377312 -10.670511 -5.243386 -1.223329 17.821323 0.000000 0.000000 0.000000 -1.991312 -0.994306 11.944092 3.261247 -0.480992 -10.518503 -5.042815 -15.233404 20.524318 0.000000 0.000000 0.000000 -2.625575 -0.114261 5.891684 3.015457 -0.120493 -24.031080 2.482452 13.836553 26.555603 12.678241 -3.099002 -27.880224 0.000000 0.000000 0.000000 -24.252367 -2.381689 -5.042651 -49.483600 -6.718085 -4.047477 -9.120881 -18.229924 1.839737 0.000000 0.000000 0.000000 -9.674599 23.410860 5.399514 -12.392703 53.778878 -6.524531 -19.447476 3.044456 -0.033576 0.000000 0.000000 0.000000 
-0.001607 0.966797 -0.030129 -1.139236 0.836288 -2.989526 4.627771 0.433396 9.486510 -1.735901 0.377612 -10.562166 -5.042941 -1.129560 17.435236 0.000000 0.000000 0.000000 -2.105100 -0.958418 11.778612 3.304275 -0.475938 -10.386707 -4.957252 -15.109640 20.250416 0.000000 0.000000 0.000000 -2.698152 -0.107561 5.792634 3.083858 -0.157767 -23.688281 2.291121 13.644766 26.316670 12.759871 -3.270121 -27.552863 0.000000 0.000000 0.000000 -24.614239 -2.464494 -4.960567 -49.245695 -7.041345 -3.883141 -9.050072 -18.422333 1.861519 0.000000 0.000000 0.000000 -9.356428 23.656532 5.592537 -11.504560 53.454131 -6.214133 -19.570374 3.729426 -0.126163 0.000000 0.000000 0.000000 
-0.001843 0.966792 -0.030666 -1.110769 0.406612 -3.001675 4.595952 0.452363 9.563939 -1.641691 0.383046 -10.668703 -5.015042 -1.069852 17.637955 0.000000 0.000000 0.000000 -2.145372 -0.930015 11.645053 3.342639 -0.468539 -10.252550 -4.870439 -15.027348 20.227879 0.000000 0.000000 0.000000 -2.783335 -0.102005 5.777781 3.210059 -0.207163 -23.498508 2.203889 13.529272 26.151905 12.814790 -3.379991 -27.471256 0.000000 0.000000 0.000000 -24.961010 -2.430307 -4.927972 -49.287213 -7.138888 -3.850987 -9.015653 -18.190066 1.849087 0.000000 0.000000 0.000000 -8.973863 23.606502 5.713666 -10.380630 53.536786 -5.873325 -19.320036 4.767601 -0.268461 0.000000 0.000000 0.000000 
-0.002095 0.966506 -0.031262 -1.048472 0.201942 -2.999007 4.533643 0.460181 9.488140 -1.631384 0.382542 -10.517096 -4.793689 -0.886618 17.353065 0.000000 0.000000 0.000000 -2.263780 -0.903644 11.568064 3.342302 -0.464672 -10.192519 -4.692299 -14.767756 20.124187 0.000000 0.000000 0.000000 -2.938031 -0.094096 5.792994 3.371994 -0.262853 -23.288558 2.079391 13.195452 26.043029 12.847464 -3.457646 -27.562509 0.000000 0.000000 0.000000 -25.190593 -2.516070 -4.762758 -49.247703 -7.289534 -3.811747 -9.150063 -18.199948 1.888215 0.000000 0.000000 0.000000 -8.373618 23.868850 5.989937 -9.378648 53.521886 -5.600571 -18.782547 6.087167 -0.443592 0.000000 0.000000 0.000000 
